<svg width="50" height="15" viewBox="0 0 50 15" fill="none" xmlns="http://www.w3.org/2000/svg">
<path d="M37.3253 12.7788C35.645 12.7788 34.6009 11.822 34.6009 10.2797C34.6009 8.67908 35.5644 7.68325 37.1157 7.68325H37.2459C37.4405 7.68325 37.7084 7.68949 38.0744 7.73443V5.80237H39.1703V12.6047C39.1703 12.6047 38.129 12.7788 37.3253 12.7788ZM37.3154 8.53147C36.2539 8.53147 35.7377 9.09477 35.7377 10.2529C35.7377 11.2927 36.3605 11.939 37.3611 11.939C37.5535 11.939 37.7738 11.9265 38.0741 11.9013V8.60075C37.7741 8.55332 37.5322 8.53147 37.3154 8.53147ZM22.3149 12.6228L19.3547 7.54438L19.3537 12.6228H18.3221V6.19371H19.7664L22.7266 11.2269L22.7253 6.19371H23.7707V12.6228H22.3149ZM31.7439 12.7217C31.2456 12.7217 30.7259 12.6668 30.1072 12.5498L30.0402 12.5373V11.6391L30.138 11.6597C30.6837 11.7743 31.1548 11.8719 31.6262 11.8719C32.0068 11.8719 32.8934 11.8133 32.8934 11.2624C32.8934 10.8006 32.2807 10.6845 31.7887 10.5918L31.7576 10.5856C31.6655 10.5687 31.5789 10.5515 31.5059 10.5334C30.784 10.3493 30.0139 10.0725 30.0139 9.12161C30.0139 8.19412 30.7605 7.66265 32.0627 7.66265C32.6877 7.66265 33.1413 7.72819 33.5061 7.78187L33.6832 7.80746V8.67908L33.5889 8.66223C33.1763 8.58765 32.6925 8.51088 32.2274 8.51088C31.7103 8.51088 31.0967 8.60606 31.0967 9.05826C31.0967 9.43368 31.5989 9.54104 32.1804 9.66556C32.9937 9.83845 34.0019 10.0557 34.0019 11.1467C34.0019 12.1475 33.1797 12.7217 31.7439 12.7217ZM42.2466 12.7217C41.1124 12.7217 40.062 12.5251 40.062 11.1014C40.062 9.55196 41.6863 9.55196 42.6574 9.55196C42.7539 9.55196 43.2104 9.57287 43.3504 9.5788C43.3491 8.70967 43.338 8.50245 42.0558 8.50245C41.5476 8.50245 40.9832 8.60107 40.4848 8.68907L40.3896 8.70592V7.84771L40.4537 7.83429C41.0314 7.71883 41.5886 7.66265 42.1565 7.66265C43.3989 7.66265 44.4516 7.78561 44.4516 9.30105V12.6059L44.376 12.6144C43.5154 12.7092 42.8323 12.7217 42.2469 12.7217M42.6301 10.3187C41.6936 10.3187 41.1133 10.4542 41.1133 11.1283C41.1133 11.9084 41.8536 11.973 42.5482 11.973C42.8072 11.973 43.2735 11.9403 43.4161 11.9303V10.3456C43.2155 10.3371 42.6933 10.3187 42.6301 10.3187ZM26.8705 12.7217C25.7347 12.7217 24.6846 12.5251 24.6846 11.1014C24.6846 9.55196 26.309 9.55196 27.2797 9.55196C27.3765 9.55196 27.834 9.57287 27.9743 9.5788C27.973 8.70967 27.9606 8.50245 26.6785 8.50245C26.1699 8.50245 25.6055 8.60107 25.1071 8.68907L25.0119 8.70592V7.84771L25.0776 7.83429C25.6374 7.7205 26.2075 7.66299 26.7791 7.66265C28.0213 7.66265 29.0742 7.78561 29.0742 9.30105V12.6059L28.9984 12.6144C28.1381 12.7092 27.4546 12.7217 26.8705 12.7217ZM27.2524 10.3187C26.3163 10.3187 25.7373 10.4542 25.7373 11.1283C25.7373 11.9084 26.4763 11.973 27.1708 11.973C27.4311 11.973 27.8975 11.9403 28.04 11.9303V10.3456C27.8378 10.3371 27.3159 10.3187 27.2527 10.3187" fill="#231F20"/>
<mask id="mask0_722_43732" style="mask-type:alpha" maskUnits="userSpaceOnUse" x="45" y="7" width="5" height="8">
<path d="M45.1627 7.37109H49.9329V14.8609H45.1627V7.37109Z" fill="white"/>
</mask>
<g mask="url(#mask0_722_43732)">
<path d="M48.8117 14.8074V12.6983C48.3841 12.757 48.1572 12.757 47.9737 12.757C47.5394 12.757 47.0572 12.6643 46.6839 12.5095C45.8481 12.1678 45.3497 11.3002 45.3497 10.1871C45.3497 9.63157 45.4874 8.61577 46.4087 8.06838C46.8712 7.79688 47.4169 7.68079 48.2378 7.68079C48.5314 7.68079 48.9282 7.70263 49.3114 7.72448L49.9339 7.75631V14.3186L48.8117 14.8074ZM48.1559 8.52932C47.0423 8.52901 46.4779 9.08762 46.4779 10.1871C46.4779 11.6026 47.3197 11.9001 48.0276 11.9001C48.2 11.9001 48.3937 11.9001 48.8225 11.8464V8.5599C48.4867 8.53806 48.3314 8.52932 48.1556 8.52932H48.1559Z" fill="#231F20"/>
</g>
<mask id="mask1_722_43732" style="mask-type:alpha" maskUnits="userSpaceOnUse" x="8" y="0" width="10" height="11">
<path d="M8.97797 0.113403H17.549V10.4069H8.97797V0.113403Z" fill="white"/>
</mask>
<g mask="url(#mask1_722_43732)">
<path d="M13.4264 0.113403L9.80182 9.90323C9.75701 10.0238 9.67857 10.1295 9.5755 10.2082C9.47242 10.287 9.34887 10.3356 9.21899 10.3486V10.3532H13.0506C13.3505 10.3532 13.6074 10.1657 13.7029 9.90354L14.0462 8.9766C14.0462 8.9766 13.5563 6.68805 13.6296 5.2577C13.7029 3.82735 14.6166 0.113403 14.6166 0.113403H13.4264Z" fill="#0996C7"/>
</g>
<path d="M8.90443 10.2048C9.12665 10.2048 9.32124 10.0962 9.44028 9.93178C9.45266 9.91462 9.49615 9.8547 9.52694 9.77325L10.8564 6.18063L10.0787 4.08254C10.0334 3.9763 9.95998 3.8839 9.86614 3.81491C9.77229 3.74593 9.66138 3.70287 9.54491 3.6902C9.42844 3.67753 9.31064 3.69571 9.20372 3.74286C9.0968 3.79 9.00465 3.8644 8.93681 3.95834C8.92412 3.9755 8.87237 4.05196 8.85015 4.11687L7.52069 7.70824L8.30192 9.81475C8.3526 9.93053 8.43667 10.0292 8.54375 10.0985C8.65083 10.1678 8.77622 10.2048 8.90443 10.2048Z" fill="#0996C7"/>
<mask id="mask2_722_43732" style="mask-type:alpha" maskUnits="userSpaceOnUse" x="0" y="3" width="10" height="11">
<path d="M0.723267 3.22888H9.29428V13.7761H0.723267V3.22888Z" fill="white"/>
</mask>
<g mask="url(#mask2_722_43732)">
<path d="M9.18977 3.53601H5.31599C5.016 3.53601 4.75919 3.72263 4.66237 3.98602L1.03778 13.7758H4.94013L8.56504 3.98634C8.61207 3.85897 8.69659 3.74825 8.80785 3.66828C8.9191 3.58831 9.05205 3.5427 9.18977 3.53726V3.53601Z" fill="#0996C7"/>
</g>
</svg>
