<svg width="5" height="8" viewBox="0 0 5 8" fill="none" xmlns="http://www.w3.org/2000/svg">
<path d="M3.81173 7.80735V5.69834C3.38413 5.75701 3.15715 5.75701 2.97367 5.75701C2.53941 5.75701 2.05721 5.66433 1.68389 5.50954C0.848059 5.16782 0.34967 4.30024 0.34967 3.18707C0.34967 2.63157 0.487442 1.61577 1.40867 1.06838C1.87118 0.796878 2.41687 0.680786 3.23779 0.680786C3.53142 0.680786 3.92823 0.702631 4.31138 0.724477L4.93389 0.756309V7.31864L3.81173 7.80735V7.80735ZM3.15588 1.52932C2.04229 1.52901 1.47787 2.08762 1.47787 3.18707C1.47787 4.60265 2.31973 4.90005 3.02764 4.90005C3.20001 4.90005 3.39365 4.90005 3.82252 4.84638V1.5599C3.48666 1.53806 3.33143 1.52932 3.15557 1.52932H3.15588Z" fill="#231F20"/>
</svg>
