<svg width="17" height="15" viewBox="0 0 17 15" fill="none" xmlns="http://www.w3.org/2000/svg">
<path d="M8.45771 0.67395C5.76141 0.67395 4.96095 0.884598 3.52854 1.17951C2.4753 1.39015 1.46419 2.14849 1.25354 3.37025C1.08502 4.33923 0.916504 5.60312 0.916504 7.41469C0.916504 9.22626 1.08502 10.448 1.29567 11.4591C1.50632 12.6388 2.4753 13.3971 3.57067 13.6499C5.08734 13.9448 5.80354 14.1554 8.49984 14.1554C11.1961 14.1554 11.9123 13.9448 13.3869 13.6499C14.4401 13.3971 15.4512 12.6388 15.6619 11.4591C15.8304 10.4902 16.041 9.22626 16.0832 7.41469C16.0832 5.60312 15.8725 4.33923 15.6619 3.32812C15.4512 2.14849 14.4822 1.39015 13.3869 1.13738H13.3447C11.8702 0.884598 11.1119 0.67395 8.45771 0.67395ZM6.89891 4.25497C7.06743 4.25497 7.23595 4.2971 7.36234 4.38136L10.9855 6.44571C11.6174 6.78275 11.6174 7.66747 10.9855 8.00451L7.36234 10.0689C6.73039 10.3638 5.97206 9.94247 5.97206 9.26839V5.18182C5.97206 4.63414 6.39336 4.25497 6.89891 4.25497Z" fill="#E0E0E0"/>
</svg>
