<svg width="64" height="64" viewBox="0 0 64 64" fill="none" xmlns="http://www.w3.org/2000/svg">
<path d="M35.8037 16.8844L34.3876 18.2968L34.3909 18.3001L35.8037 16.8844ZM33.4142 18.3332L32 16.919L30.5858 18.3332L32 19.7474L33.4142 18.3332ZM35.7476 20.6665L34.3333 22.0807L34.9191 22.6665H35.7476V20.6665ZM39.5858 20.6665V22.6665H44.4142L41 19.2523L39.5858 20.6665ZM35.8046 16.8853L37.2188 15.4711L37.2173 15.4696L35.8046 16.8853ZM32 16.919L30.5858 18.3332L32 19.7474L33.4142 18.3332L32 16.919ZM33.4479 15.4711L32.0337 14.0569L33.4479 15.4711ZM30.5521 15.4711L31.9663 14.0569L30.5521 15.4711ZM26.7807 15.4716L28.1949 16.8858L28.1965 16.8843L26.7807 15.4716ZM21.5858 20.6665V22.6665H22.4142L23 22.0807L21.5858 20.6665ZM42.4142 20.6665L41 22.0807L41.5858 22.6665H42.4142V20.6665ZM37.2197 15.472L35.8038 16.8846L35.8055 16.8862L37.2197 15.472ZM37.2193 15.4716L38.6352 14.059L38.635 14.0589L37.2193 15.4716ZM46 29V31H48V29H46ZM46 37.6667H48V35.6667H46V37.6667ZM24.4142 20.6665L23 19.2523L19.5858 22.6665H24.4142V20.6665ZM28.1954 16.8853L29.6097 18.2995L29.6111 18.298L28.1954 16.8853ZM32.9191 20.6665V22.6665H37.7475L34.3333 19.2523L32.9191 20.6665ZM31.2929 19.0403L32.7071 17.6261L31.2929 19.0403ZM29.1379 16.8853L27.7237 18.2995L29.1379 16.8853ZM28.1964 16.8844L29.6121 18.2971L29.6124 18.2968L28.1964 16.8844ZM46 31H48V29H46V31ZM46 35.6667V37.6667H48V35.6667H46ZM54 0H10V4H54V0ZM64 10C64 4.47715 59.5228 0 54 0V4C57.3137 4 60 6.68629 60 10H64ZM64 54V10H60V54H64ZM54 64C59.5228 64 64 59.5228 64 54H60C60 57.3137 57.3137 60 54 60V64ZM10 64H54V60H10V64ZM0 54C0 59.5228 4.47715 64 10 64V60C6.68629 60 4 57.3137 4 54H0ZM0 10V54H4V10H0ZM10 0C4.47715 0 0 4.47715 0 10H4C4 6.68629 6.68629 4 10 4V0ZM10 -2C3.37258 -2 -2 3.37258 -2 10H2C2 5.58172 5.58172 2 10 2V-2ZM54 -2H10V2H54V-2ZM66 10C66 3.37258 60.6274 -2 54 -2V2C58.4183 2 62 5.58172 62 10H66ZM66 54V10H62V54H66ZM54 66C60.6274 66 66 60.6274 66 54H62C62 58.4183 58.4183 62 54 62V66ZM10 66H54V62H10V66ZM-2 54C-2 60.6274 3.37258 66 10 66V62C5.58172 62 2 58.4183 2 54H-2ZM-2 10V54H2V10H-2ZM36.2763 18.2995C35.7572 18.8187 34.9105 18.8211 34.3876 18.2968L37.2197 15.472C36.1792 14.4289 34.4904 14.4286 33.4479 15.4711L36.2763 18.2995ZM34.8284 19.7474L36.2763 18.2995L33.4479 15.4711L32 16.919L34.8284 19.7474ZM37.1618 19.2523L34.8284 16.919L32 19.7474L34.3333 22.0807L37.1618 19.2523ZM39.5858 18.6665H35.7476V22.6665H39.5858V18.6665ZM34.3904 18.2995L38.1716 22.0807L41 19.2523L37.2188 15.4711L34.3904 18.2995ZM34.3909 18.3001L34.3918 18.301L37.2173 15.4696L37.2164 15.4687L34.3909 18.3001ZM33.4142 18.3332L34.8621 16.8853L32.0337 14.0569L30.5858 15.5048L33.4142 18.3332ZM29.1379 16.8853L30.5858 18.3332L33.4142 15.5048L31.9663 14.0569L29.1379 16.8853ZM28.1965 16.8843C28.455 16.6252 28.8761 16.6235 29.1379 16.8853L31.9663 14.0569C30.145 12.2356 27.189 12.231 25.365 14.0589L28.1965 16.8843ZM28.1945 16.8862L28.1949 16.8858L25.3665 14.0574L25.3661 14.0578L28.1945 16.8862ZM23 22.0807L28.1945 16.8862L25.3661 14.0578L20.1716 19.2523L23 22.0807ZM20.3333 22.6665H21.5858V18.6665H20.3333V22.6665ZM18 24.9999C18 23.7105 19.044 22.6665 20.3333 22.6665V18.6665C16.8348 18.6665 14 21.5013 14 24.9999H18ZM18 41.6665V24.9999H14V41.6665H18ZM20.3333 43.9999C19.044 43.9999 18 42.9559 18 41.6665H14C14 45.1651 16.8348 47.9999 20.3333 47.9999V43.9999ZM43.6667 43.9999H20.3333V47.9999H43.6667V43.9999ZM46 41.6665C46 42.9559 44.9561 43.9999 43.6667 43.9999V47.9999C47.1652 47.9999 50 45.1651 50 41.6665H46ZM46 24.9999V41.6665H50V24.9999H46ZM43.6667 22.6665C44.9561 22.6665 46 23.7105 46 24.9999H50C50 21.5013 47.1652 18.6665 43.6667 18.6665V22.6665ZM42.4142 22.6665H43.6667V18.6665H42.4142V22.6665ZM35.8055 16.8862L41 22.0807L43.8284 19.2523L38.6339 14.0578L35.8055 16.8862ZM35.8034 16.8841L35.8038 16.8845L38.6356 14.0595L38.6352 14.059L35.8034 16.8841ZM34.8621 16.8853C35.1239 16.6235 35.545 16.6252 35.8035 16.8843L38.635 14.0589C36.8111 12.231 33.855 12.2356 32.0337 14.0569L34.8621 16.8853ZM42.001 20.6665H41.999V24.6665H42.001V20.6665ZM43.6667 20.6665H42.001V24.6665H43.6667V20.6665ZM48 24.9999C48 22.6059 46.0606 20.6665 43.6667 20.6665V24.6665C43.8515 24.6665 44 24.8151 44 24.9999H48ZM48 29V24.9999H44V29H48ZM41.0316 31H46V27H41.0316V31ZM39.6666 32.365C39.6666 31.6106 40.2773 31 41.0316 31V27C38.0681 27 35.6666 29.4015 35.6666 32.365H39.6666ZM39.6666 34.3017V32.365H35.6666V34.3017H39.6666ZM41.0316 35.6667C40.2773 35.6667 39.6666 35.056 39.6666 34.3017H35.6666C35.6666 37.2652 38.0681 39.6667 41.0316 39.6667V35.6667ZM46 35.6667H41.0316V39.6667H46V35.6667ZM48 41.6665V37.6667H44V41.6665H48ZM43.6667 45.9999C46.0606 45.9999 48 44.0605 48 41.6665H44C44 41.8513 43.8515 41.9999 43.6667 41.9999V45.9999ZM20.3333 45.9999H43.6667V41.9999H20.3333V45.9999ZM16 41.6665C16 44.0605 17.9394 45.9999 20.3333 45.9999V41.9999C20.1485 41.9999 20 41.8513 20 41.6665H16ZM16 24.9999V41.6665H20V24.9999H16ZM20.3333 20.6665C17.9394 20.6665 16 22.6059 16 24.9999H20C20 24.8151 20.1485 24.6665 20.3333 24.6665V20.6665ZM22 20.6665H20.3333V24.6665H22V20.6665ZM35.3333 20.6665H22V24.6665H35.3333V20.6665ZM41.999 20.6665H35.3333V24.6665H41.999V20.6665ZM25.8284 22.0807L29.6097 18.2995L26.7812 15.4711L23 19.2523L25.8284 22.0807ZM32.9191 18.6665H24.4142V22.6665H32.9191V18.6665ZM29.8787 20.4545L31.5049 22.0807L34.3333 19.2523L32.7071 17.6261L29.8787 20.4545ZM27.7237 18.2995L29.8787 20.4545L32.7071 17.6261L30.5521 15.4711L27.7237 18.2995ZM29.6124 18.2968C29.0895 18.8211 28.2429 18.8187 27.7237 18.2995L30.5521 15.4711C29.5096 14.4286 27.8208 14.4289 26.7803 15.472L29.6124 18.2968ZM29.6111 18.298L29.6121 18.2971L26.7806 15.4717L26.7797 15.4726L29.6111 18.298ZM44 31V35.6667H48V31H44ZM41.0316 33H46V29H41.0316V33ZM41.6666 32.365C41.6666 32.7152 41.3818 33 41.0316 33V29C39.1727 29 37.6666 30.5061 37.6666 32.365H41.6666ZM41.6666 34.3017V32.365H37.6666V34.3017H41.6666ZM41.0316 33.6667C41.3818 33.6667 41.6666 33.9515 41.6666 34.3017H37.6666C37.6666 36.1606 39.1727 37.6667 41.0316 37.6667V33.6667ZM46 33.6667H41.0316V37.6667H46V33.6667Z" fill="url(#paint0_linear_54_33350)"/>
<defs>
<linearGradient id="paint0_linear_54_33350" x1="5.00044e-07" y1="-9.05313e-07" x2="77.2524" y2="32.4712" gradientUnits="userSpaceOnUse">
<stop stop-color="#EAAFAC"/>
<stop offset="0.286458" stop-color="#D58EA4"/>
<stop offset="0.682292" stop-color="#A968A0"/>
<stop offset="1" stop-color="#8046A2"/>
</linearGradient>
</defs>
</svg>
